<svg width="182" height="73" viewBox="0 0 182 73" fill="none" xmlns="http://www.w3.org/2000/svg">
<path d="M64.8692 72.72C62.8052 72.72 61.7732 71.352 61.7732 68.616C61.7732 65.88 62.8052 64.512 64.8692 64.512C66.9332 64.512 67.9652 65.88 67.9652 68.616C67.9652 71.352 66.9332 72.72 64.8692 72.72Z" fill="#FFB323"/>
<path d="M12.6 29.952C11.304 29.952 10.008 30.6 8.71203 31.896V65.232L9.00003 72C7.36803 72.24 5.76003 72.36 4.17603 72.36C3.40803 72.36 3.02403 71.952 3.02403 71.136V32.184C3.02403 31.128 2.83203 30.384 2.44803 29.952C2.06403 29.472 1.36803 29.232 0.36003 29.232C0.31203 27.984 0.64803 27 1.36803 26.28C2.08803 25.56 3.24003 25.2 4.82403 25.2C6.40803 25.2 7.53603 25.992 8.20803 27.576C10.08 25.992 12 25.2 13.968 25.2C16.896 25.2 18.912 26.112 20.016 27.936C21.984 26.112 24.048 25.2 26.208 25.2C30.96 25.2 33.336 27.552 33.336 32.256V65.88C33.336 66.888 33.528 67.608 33.912 68.04C34.344 68.424 35.064 68.616 36.072 68.616C36.072 71.352 34.536 72.72 31.464 72.72C28.92 72.72 27.648 71.064 27.648 67.752V32.688C27.648 30.864 26.712 29.952 24.84 29.952C23.352 29.952 22.104 30.552 21.096 31.752V65.232L21.384 72C19.752 72.24 18.144 72.36 16.56 72.36C15.792 72.36 15.408 71.952 15.408 71.136V32.688C15.408 30.864 14.472 29.952 12.6 29.952Z" fill="#202325"/>
<path d="M39.3053 71.136V32.184C39.3053 31.128 39.1133 30.384 38.7293 29.952C38.3453 29.472 37.6493 29.232 36.6413 29.232C36.5933 27.984 36.9293 27 37.6493 26.28C38.3693 25.56 39.5213 25.2 41.1053 25.2C42.6893 25.2 43.8173 25.992 44.4893 27.576C46.3613 25.992 48.2813 25.2 50.2493 25.2C55.0013 25.2 57.3773 27.552 57.3773 32.256V48.96C57.3773 51.984 56.1053 54.144 53.5613 55.44L55.0733 65.088C55.3133 66.624 56.0573 67.392 57.3053 67.392C57.6893 67.392 58.1453 67.296 58.6733 67.104C58.8653 67.68 58.9613 68.376 58.9613 69.192C58.9613 69.96 58.5533 70.752 57.7373 71.568C56.9693 72.336 55.9613 72.72 54.7133 72.72C51.8813 72.72 50.2733 71.496 49.8893 69.048L47.8013 56.592H44.9933V65.232L45.2813 72C43.6493 72.24 42.0413 72.36 40.4573 72.36C39.6893 72.36 39.3053 71.952 39.3053 71.136ZM48.8813 29.952C47.5853 29.952 46.2893 30.6 44.9933 31.896V51.84H48.3053C49.3133 51.84 50.1293 51.6 50.7533 51.12C51.3773 50.592 51.6893 49.872 51.6893 48.96V32.688C51.6893 30.864 50.7533 29.952 48.8813 29.952Z" fill="#202325"/>
<path d="M83.0014 67.248C84.7294 67.248 86.0254 67.128 86.8894 66.888C87.2734 68.232 87.4654 69.552 87.4654 70.848C87.4654 71.616 87.1294 72 86.4574 72H72.2734V31.968L71.9854 25.2C73.6174 24.96 75.2254 24.84 76.8094 24.84C77.5774 24.84 77.9614 25.248 77.9614 26.064V67.248H83.0014Z" fill="#202325"/>
<path d="M90.126 65.376V32.112C90.126 29.712 90.942 27.84 92.574 26.496C94.206 25.152 96.438 24.48 99.27 24.48C102.102 24.48 104.286 25.104 105.822 26.352C107.406 27.6 108.198 29.424 108.198 31.824V65.088C108.198 67.488 107.358 69.36 105.678 70.704C104.046 72.048 101.814 72.72 98.982 72.72C96.15 72.72 93.966 72.096 92.43 70.848C90.894 69.6 90.126 67.776 90.126 65.376ZM95.814 32.112V65.088C95.814 65.952 96.102 66.648 96.678 67.176C97.302 67.704 98.118 67.968 99.126 67.968C100.134 67.968 100.95 67.728 101.574 67.248C102.198 66.72 102.51 66 102.51 65.088V32.112C102.51 31.2 102.198 30.504 101.574 30.024C100.95 29.496 100.134 29.232 99.126 29.232C98.118 29.232 97.302 29.496 96.678 30.024C96.102 30.504 95.814 31.2 95.814 32.112Z" fill="#202325"/>
<path d="M125.506 54.648C124.21 54.648 122.914 54.768 121.618 55.008C121.234 53.664 121.042 52.344 121.042 51.048C121.042 50.28 121.378 49.896 122.05 49.896H131.194V65.88C131.194 66.888 131.386 67.608 131.77 68.04C132.154 68.472 132.85 68.688 133.858 68.688C133.906 69.936 133.57 70.92 132.85 71.64C132.178 72.36 131.194 72.72 129.898 72.72C127.882 72.72 126.586 71.976 126.01 70.488C124.666 71.976 122.818 72.72 120.466 72.72C115.57 72.72 113.122 70.416 113.122 65.808V32.112C113.122 29.712 113.938 27.84 115.57 26.496C117.202 25.152 119.386 24.48 122.122 24.48C124.906 24.48 127.114 25.104 128.746 26.352C130.378 27.552 131.194 29.136 131.194 31.104V39.312C131.194 40.176 130.57 40.776 129.322 41.112C128.65 41.304 127.978 41.4 127.306 41.4C126.634 41.4 125.962 41.328 125.29 41.184C125.434 40.032 125.506 38.808 125.506 37.512V32.112C125.506 31.2 125.194 30.504 124.57 30.024C123.946 29.496 123.13 29.232 122.122 29.232C121.114 29.232 120.298 29.496 119.674 30.024C119.098 30.504 118.81 31.2 118.81 32.112V65.376C118.81 67.104 119.674 67.968 121.402 67.968C123.178 67.968 124.546 67.128 125.506 65.448V54.648Z" fill="#202325"/>
<path d="M136.748 71.136V32.112C136.748 29.712 137.564 27.84 139.196 26.496C140.828 25.152 143.06 24.48 145.892 24.48C148.724 24.48 150.908 25.104 152.444 26.352C154.028 27.6 154.82 29.424 154.82 31.824V65.88C154.82 66.888 155.012 67.608 155.396 68.04C155.828 68.424 156.548 68.616 157.556 68.616C157.556 71.352 156.02 72.72 152.948 72.72C150.404 72.72 149.132 71.064 149.132 67.752V54H142.436V65.232L142.724 72C141.092 72.24 139.484 72.36 137.9 72.36C137.132 72.36 136.748 71.952 136.748 71.136ZM142.436 32.112V49.248H149.132V32.112C149.132 31.2 148.82 30.504 148.196 30.024C147.572 29.496 146.756 29.232 145.748 29.232C144.74 29.232 143.924 29.496 143.3 30.024C142.724 30.504 142.436 31.2 142.436 32.112Z" fill="#202325"/>
<path d="M170.311 29.952C169.015 29.952 167.719 30.6 166.423 31.896V65.232L166.711 72C165.079 72.24 163.471 72.36 161.887 72.36C161.119 72.36 160.735 71.952 160.735 71.136V32.184C160.735 31.128 160.543 30.384 160.159 29.952C159.775 29.472 159.079 29.232 158.071 29.232C158.023 27.984 158.359 27 159.079 26.28C159.799 25.56 160.951 25.2 162.535 25.2C164.119 25.2 165.247 25.992 165.919 27.576C167.791 25.992 169.711 25.2 171.679 25.2C176.431 25.2 178.807 27.552 178.807 32.256V65.88C178.807 66.888 178.999 67.608 179.383 68.04C179.815 68.424 180.535 68.616 181.543 68.616C181.543 71.352 180.007 72.72 176.935 72.72C174.391 72.72 173.119 71.064 173.119 67.752V32.688C173.119 30.864 172.183 29.952 170.311 29.952Z" fill="#202325"/>
<path d="M9 16H177M94.6066 15.6066L84 5H45M155 5L166 5L176.607 15.6066" stroke="#202325" stroke-width="3.5" stroke-linecap="round"/>
<path d="M8.375 16C8.375 17.864 6.86396 19.375 5 19.375C3.13604 19.375 1.625 17.864 1.625 16C1.625 14.136 3.13604 12.625 5 12.625C6.86396 12.625 8.375 14.136 8.375 16ZM44.375 5C44.375 6.86396 42.864 8.375 41 8.375C39.136 8.375 37.625 6.86396 37.625 5C37.625 3.13604 39.136 1.625 41 1.625C42.864 1.625 44.375 3.13604 44.375 5ZM154.375 5C154.375 6.86396 152.864 8.375 151 8.375C149.136 8.375 147.625 6.86396 147.625 5C147.625 3.13604 149.136 1.625 151 1.625C152.864 1.625 154.375 3.13604 154.375 5Z" stroke="#FFB323" stroke-width="3.25"/>
</svg>
